nColumns=28
nRows=80
DataType=double
version=3
OpenSimVersion=4.1
endheader
time	ground_force_1_vx	ground_force_1_vy	ground_force_1_vz	ground_force_1_px	ground_force_1_py	ground_force_1_pz	ground_force_1_mx	ground_force_1_my	ground_force_1_mz	ground_force_2_vx	ground_force_2_vy	ground_force_2_vz	ground_force_2_px	ground_force_2_py	ground_force_2_pz	ground_force_2_mx	ground_force_2_my	ground_force_2_mz	ground_force_3_vx	ground_force_3_vy	ground_force_3_vz	ground_force_3_px	ground_force_3_py	ground_force_3_pz	ground_force_3_mx	ground_force_3_my	ground_force_3_mz
0	-1.46217	328.449	-35.7098	-0.245596	0.006	-0.402373	0	-1.13063	0	0.549285	322.683	36.9345	-0.248348	0.006	-0.79303	0	1.20696	0	0	0	0	0	0	0	0	0	0
0.01	-1.37209	328.085	-35.6336	-0.245703	0.006	-0.402434	0	-1.13987	0	0.560021	322.904	36.991	-0.248323	0.006	-0.792974	0	1.21843	0	0	0	0	0	0	0	0	0	0
0.02	-1.27819	327.655	-35.5468	-0.245826	0.006	-0.4025	0	-1.14806	0	0.574502	323.218	37.0649	-0.2483	0.006	-0.792924	0	1.22897	0	0	0	0	0	0	0	0	0	0
0.03	-1.18174	327.159	-35.4498	-0.245965	0.006	-0.402569	0	-1.1549	0	0.593206	323.633	37.1582	-0.24828	0.006	-0.792884	0	1.23813	0	0	0	0	0	0	0	0	0	0
0.04	-1.08296	326.596	-35.3431	-0.246123	0.006	-0.402642	0	-1.16024	0	0.616439	324.157	37.2729	-0.248265	0.006	-0.792854	0	1.24569	0	0	0	0	0	0	0	0	0	0
0.05	-0.981285	325.969	-35.2263	-0.246303	0.006	-0.402718	0	-1.16397	0	0.644352	324.791	37.4106	-0.248256	0.006	-0.792834	0	1.25156	0	0	0	0	0	0	0	0	0	0
0.06	-0.8756	325.281	-35.0989	-0.246506	0.006	-0.402799	0	-1.16601	0	0.676913	325.533	37.5721	-0.248256	0.006	-0.792822	0	1.25577	0	0	0	0	0	0	0	0	0	0
0.07	-0.764682	324.535	-34.9603	-0.246737	0.006	-0.402885	0	-1.1663	0	0.713862	326.373	37.7578	-0.248266	0.006	-0.792818	0	1.25842	0	0	0	0	0	0	0	0	0	0
0.08	-0.64729	323.738	-34.8102	-0.246997	0.006	-0.402977	0	-1.16479	0	0.754764	327.299	37.967	-0.248287	0.006	-0.792818	0	1.2597	0	0	0	0	0	0	0	0	0	0
0.09	-0.522668	322.895	-34.6482	-0.247288	0.006	-0.403077	0	-1.16142	0	0.799161	328.298	38.1985	-0.248322	0.006	-0.79282	0	1.25993	0	0	0	0	0	0	0	0	0	0
0.1	-0.390585	322.011	-34.4747	-0.247614	0.006	-0.403188	0	-1.15615	0	0.846711	329.356	38.4504	-0.248373	0.006	-0.792823	0	1.25949	0	0	0	0	0	0	0	0	0	0
0.11	-0.251477	321.095	-34.2902	-0.247973	0.006	-0.40331	0	-1.1489	0	0.897172	330.457	38.7206	-0.24844	0.006	-0.792824	0	1.2588	0	0	0	0	0	0	0	0	0	0
0.12	-0.10638	320.154	-34.0956	-0.248365	0.006	-0.403444	0	-1.13963	0	0.950224	331.587	39.0064	-0.248523	0.006	-0.792823	0	1.25811	0	0	0	0	0	0	0	0	0	0
0.13	0.0432663	319.197	-33.8924	-0.248787	0.006	-0.40359	0	-1.1283	0	1.00535	332.732	39.3049	-0.248621	0.006	-0.792819	0	1.25758	0	0	0	0	0	0	0	0	0	0
0.14	0.195689	318.229	-33.6825	-0.249235	0.006	-0.403746	0	-1.11498	0	1.06163	333.883	39.613	-0.24873	0.006	-0.792814	0	1.25728	0	0	0	0	0	0	0	0	0	0
0.15	0.34845	317.258	-33.4681	-0.249704	0.006	-0.40391	0	-1.09977	0	1.11781	335.031	39.9286	-0.248849	0.006	-0.79281	0	1.25712	0	0	0	0	0	0	0	0	0	0
0.16	0.498532	316.29	-33.2511	-0.250186	0.006	-0.404078	0	-1.08286	0	1.17251	336.168	40.2502	-0.248974	0.006	-0.792807	0	1.25694	0	0	0	0	0	0	0	0	0	0
0.17	0.642769	315.327	-33.0334	-0.250673	0.006	-0.40425	0	-1.06453	0	1.22456	337.291	40.5772	-0.249101	0.006	-0.792808	0	1.25657	0	0	0	0	0	0	0	0	0	0
0.18	0.778403	314.37	-32.8167	-0.25116	0.006	-0.404423	0	-1.04517	0	1.27302	338.399	40.9093	-0.249226	0.006	-0.792814	0	1.25584	0	0	0	0	0	0	0	0	0	0
0.19	0.903305	313.42	-32.6021	-0.251637	0.006	-0.404594	0	-1.02517	0	1.31671	339.489	41.2465	-0.249348	0.006	-0.792824	0	1.25454	0	0	0	0	0	0	0	0	0	0
0.2	1.01595	312.476	-32.39	-0.2521	0.006	-0.404763	0	-1.00486	0	1.35427	340.563	41.5886	-0.249464	0.006	-0.79284	0	1.25248	0	0	0	0	0	0	0	0	0	0
0.21	1.11531	311.534	-32.1805	-0.252542	0.006	-0.404928	0	-0.984529	0	1.38468	341.617	41.936	-0.249572	0.006	-0.79286	0	1.24946	0	0	0	0	0	0	0	0	0	0
0.22	1.20118	310.592	-31.9735	-0.252959	0.006	-0.405088	0	-0.964305	0	1.4075	342.649	42.2889	-0.249673	0.006	-0.792885	0	1.24543	0	0	0	0	0	0	0	0	0	0
0.23	1.27424	309.644	-31.7687	-0.253346	0.006	-0.405243	0	-0.944259	0	1.42305	343.659	42.6481	-0.249763	0.006	-0.792911	0	1.2404	0	0	0	0	0	0	0	0	0	0
0.24	1.33586	308.689	-31.5653	-0.253701	0.006	-0.40539	0	-0.924509	0	1.43224	344.645	43.0142	-0.249844	0.006	-0.792939	0	1.23438	0	0	0	0	0	0	0	0	0	0
0.25	1.38798	307.729	-31.3627	-0.254021	0.006	-0.405528	0	-0.905252	0	1.43639	345.608	43.3874	-0.249915	0.006	-0.792966	0	1.22738	0	0	0	0	0	0	0	0	0	0
0.26	1.43303	306.771	-31.1605	-0.254305	0.006	-0.405658	0	-0.886685	0	1.43712	346.548	43.7678	-0.249979	0.006	-0.792992	0	1.21944	0	0	0	0	0	0	0	0	0	0
0.27	1.47382	305.825	-30.9592	-0.254552	0.006	-0.405778	0	-0.868939	0	1.43628	347.461	44.1545	-0.250037	0.006	-0.793017	0	1.21065	0	0	0	0	0	0	0	0	0	0
0.28	1.51357	304.903	-30.7599	-0.254764	0.006	-0.405886	0	-0.852138	0	1.43574	348.34	44.5451	-0.250091	0.006	-0.793039	0	1.20115	0	0	0	0	0	0	0	0	0	0
0.29	1.55589	304.021	-30.5638	-0.254942	0.006	-0.405984	0	-0.836357	0	1.43753	349.175	44.9362	-0.250145	0.006	-0.793058	0	1.19111	0	0	0	0	0	0	0	0	0	0
0.3	1.60453	303.198	-30.3727	-0.25509	0.006	-0.40607	0	-0.821586	0	1.44364	349.955	45.3235	-0.250201	0.006	-0.793074	0	1.18071	0	0	0	0	0	0	0	0	0	0
0.31	1.66305	302.451	-30.1883	-0.255212	0.006	-0.406144	0	-0.807727	0	1.45612	350.663	45.7018	-0.250259	0.006	-0.793086	0	1.17011	0	0	0	0	0	0	0	0	0	0
0.32	1.73447	301.803	-30.012	-0.255311	0.006	-0.406205	0	-0.794653	0	1.4771	351.283	46.0652	-0.25032	0.006	-0.793095	0	1.15964	0	0	0	0	0	0	0	0	0	0
0.33	1.82095	301.271	-29.8454	-0.255392	0.006	-0.406253	0	-0.782165	0	1.50815	351.801	46.4072	-0.250384	0.006	-0.7931	0	1.14978	0	0	0	0	0	0	0	0	0	0
0.34	1.92372	300.872	-29.6897	-0.255457	0.006	-0.406287	0	-0.770031	0	1.54986	352.202	46.722	-0.250449	0.006	-0.793102	0	1.14104	0	0	0	0	0	0	0	0	0	0
0.35	2.04313	300.619	-29.5464	-0.25551	0.006	-0.406307	0	-0.758005	0	1.6019	352.477	47.0039	-0.250515	0.006	-0.793099	0	1.13369	0	0	0	0	0	0	0	0	0	0
0.36	2.17883	300.525	-29.4169	-0.255551	0.006	-0.406314	0	-0.745784	0	1.66313	352.615	47.2479	-0.250578	0.006	-0.793093	0	1.12788	0	0	0	0	0	0	0	0	0	0
0.37	2.32959	300.603	-29.3026	-0.255578	0.006	-0.406308	0	-0.733021	0	1.73181	352.611	47.4506	-0.250638	0.006	-0.793084	0	1.12374	0	0	0	0	0	0	0	0	0	0
0.38	2.49339	300.864	-29.2046	-0.255593	0.006	-0.40629	0	-0.719386	0	1.80555	352.461	47.6101	-0.25069	0.006	-0.793071	0	1.12128	0	0	0	0	0	0	0	0	0	0
0.39	2.66743	301.315	-29.1237	-0.255593	0.006	-0.406262	0	-0.704583	0	1.88149	352.161	47.7258	-0.250732	0.006	-0.793056	0	1.12034	0	0	0	0	0	0	0	0	0	0
0.4	2.84822	301.961	-29.0606	-0.255577	0.006	-0.406225	0	-0.688353	0	1.95636	351.713	47.7985	-0.250758	0.006	-0.793037	0	1.12066	0	0	0	0	0	0	0	0	0	0
0.41	3.03207	302.804	-29.0162	-0.255542	0.006	-0.406181	0	-0.670472	0	2.02652	351.12	47.8303	-0.250764	0.006	-0.793016	0	1.12192	0	0	0	0	0	0	0	0	0	0
0.42	3.21551	303.841	-28.9908	-0.255484	0.006	-0.40613	0	-0.650756	0	2.08821	350.389	47.8241	-0.250746	0.006	-0.792991	0	1.12384	0	0	0	0	0	0	0	0	0	0
0.43	3.39576	305.065	-28.9848	-0.255403	0.006	-0.406073	0	-0.62908	0	2.13809	349.528	47.784	-0.250702	0.006	-0.792964	0	1.12623	0	0	0	0	0	0	0	0	0	0
0.44	3.57117	306.457	-28.9979	-0.255298	0.006	-0.406007	0	-0.605384	0	2.17333	348.547	47.7144	-0.250631	0.006	-0.792934	0	1.12893	0	0	0	0	0	0	0	0	0	0
0.45	3.74146	307.996	-29.0295	-0.255169	0.006	-0.405935	0	-0.579688	0	2.19157	347.457	47.6205	-0.250533	0.006	-0.7929	0	1.13187	0	0	0	0	0	0	0	0	0	0
0.46	3.90702	309.647	-29.0783	-0.255019	0.006	-0.405858	0	-0.552026	0	2.19087	346.269	47.5077	-0.25041	0.006	-0.792864	0	1.13499	0	0	0	0	0	0	0	0	0	0
0.47	4.06867	311.374	-29.142	-0.254847	0.006	-0.405776	0	-0.522523	0	2.16972	344.997	47.3818	-0.25026	0.006	-0.792827	0	1.13824	0	0	0	0	0	0	0	0	0	0
0.48	4.22761	313.132	-29.2175	-0.254658	0.006	-0.405692	0	-0.491431	0	2.12687	343.655	47.2484	-0.250086	0.006	-0.792789	0	1.14145	0	0	0	0	0	0	0	0	0	0
0.49	4.38517	314.879	-29.3015	-0.254452	0.006	-0.405606	0	-0.459153	0	2.0615	342.259	47.1133	-0.249887	0.006	-0.792753	0	1.14438	0	0	0	0	0	0	0	0	0	0
0.5	4.54269	316.574	-29.3902	-0.254235	0.006	-0.405519	0	-0.426219	0	1.97354	340.823	46.9826	-0.249663	0.006	-0.79272	0	1.14672	0	0	0	0	0	0	0	0	0	0
0.51	4.70112	318.176	-29.4797	-0.254009	0.006	-0.405433	0	-0.393245	0	1.86313	339.36	46.8624	-0.249415	0.006	-0.792692	0	1.14819	0	0	0	0	0	0	0	0	0	0
0.52	4.8606	319.652	-29.5661	-0.253779	0.006	-0.405349	0	-0.360769	0	1.73042	337.879	46.7589	-0.249144	0.006	-0.792671	0	1.14845	0	0	0	0	0	0	0	0	0	0
0.53	5.02001	320.971	-29.6453	-0.253549	0.006	-0.40527	0	-0.329149	0	1.57568	336.389	46.677	-0.248852	0.006	-0.792659	0	1.14712	0	0	0	0	0	0	0	0	0	0
0.54	5.17736	322.111	-29.7134	-0.253323	0.006	-0.405199	0	-0.298584	0	1.39981	334.893	46.6211	-0.248543	0.006	-0.792655	0	1.14392	0	0	0	0	0	0	0	0	0	0
0.55	5.32988	323.051	-29.7667	-0.253103	0.006	-0.405139	0	-0.269148	0	1.2046	333.395	46.5946	-0.248219	0.006	-0.792658	0	1.13882	0	0	0	0	0	0	0	0	0	0
0.56	5.47369	323.778	-29.8011	-0.252891	0.006	-0.405091	0	-0.240787	0	0.992611	331.9	46.6	-0.247885	0.006	-0.792667	0	1.13186	0	0	0	0	0	0	0	0	0	0
0.57	5.60363	324.281	-29.8118	-0.252685	0.006	-0.405057	0	-0.213386	0	0.767139	330.413	46.6388	-0.247544	0.006	-0.79268	0	1.12323	0	0	0	0	0	0	0	0	0	0
0.58	5.71321	324.55	-29.7932	-0.252484	0.006	-0.405036	0	-0.186807	0	0.531985	328.941	46.7111	-0.247199	0.006	-0.792696	0	1.11309	0	0	0	0	0	0	0	0	0	0
0.59	5.79436	324.584	-29.7404	-0.252285	0.006	-0.405031	0	-0.160898	0	0.291458	327.495	46.8162	-0.246853	0.006	-0.792715	0	1.10157	0	0	0	0	0	0	0	0	0	0
0.6	5.83739	324.384	-29.649	-0.252084	0.006	-0.405041	0	-0.135452	0	0.050503	326.084	46.9518	-0.246508	0.006	-0.792735	0	1.08891	0	0	0	0	0	0	0	0	0	0
0.61	5.83184	323.963	-29.5164	-0.251879	0.006	-0.405067	0	-0.110222	0	-0.185676	324.715	47.1151	-0.246166	0.006	-0.792754	0	1.07533	0	0	0	0	0	0	0	0	0	0
0.62	5.76765	323.345	-29.3411	-0.251666	0.006	-0.40511	0	-0.084911	0	-0.411884	323.388	47.3018	-0.245829	0.006	-0.792771	0	1.06095	0	0	0	0	0	0	0	0	0	0
0.63	5.63686	322.56	-29.1224	-0.251443	0.006	-0.405171	0	-0.059248	0	-0.623111	322.097	47.5059	-0.245496	0.006	-0.792782	0	1.0458	0	0	0	0	0	0	0	0	0	0
0.64	5.43564	321.648	-28.8592	-0.251214	0.006	-0.40525	0	-0.032937	0	-0.814578	320.829	47.7199	-0.245169	0.006	-0.792784	0	1.02991	0	0	0	0	0	0	0	0	0	0
0.65	5.16562	320.656	-28.5506	-0.250981	0.006	-0.40535	0	-0.005615	0	-0.981464	319.566	47.9357	-0.244849	0.006	-0.792774	0	1.01333	0	0	0	0	0	0	0	0	0	0
0.66	4.83366	319.64	-28.1967	-0.250751	0.006	-0.405472	0	0.023105	0	-1.11871	318.284	48.144	-0.244537	0.006	-0.792751	0	0.996152	0	0	0	0	0	0	0	0	0	0
0.67	4.44967	318.662	-27.7995	-0.250532	0.006	-0.405616	0	0.053621	0	-1.22137	316.948	48.3352	-0.244234	0.006	-0.792712	0	0.978392	0	0	0	0	0	0	0	0	0	0
0.68	4.02414	317.778	-27.3642	-0.250329	0.006	-0.405781	0	0.086266	0	-1.28519	315.51	48.4993	-0.243938	0.006	-0.792656	0	0.95997	0	0	0	0	0	0	0	0	0	0
0.69	3.56723	317.035	-26.8996	-0.250148	0.006	-0.405962	0	0.121268	0	-1.30706	313.903	48.6244	-0.243646	0.006	-0.792585	0	0.940854	0	0	0	0	0	0	0	0	0	0
0.7	3.08943	316.472	-26.4188	-0.249991	0.006	-0.406156	0	0.158767	0	-1.28593	312.042	48.6954	-0.243351	0.006	-0.792495	0	0.92113	0	0	0	0	0	0	0	0	0	0
0.71	2.60185	316.127	-25.9387	-0.249861	0.006	-0.406355	0	0.198748	0	-1.22387	309.815	48.6925	-0.243045	0.006	-0.792388	0	0.900978	0	0	0	0	0	0	0	0	0	0
0.72	2.1156	316.041	-25.4788	-0.24976	0.006	-0.406552	0	0.240989	0	-1.12682	307.088	48.5907	-0.242718	0.006	-0.79226	0	0.880539	0	0	0	0	0	0	0	0	0	0
0.73	1.64073	316.252	-25.06	-0.249689	0.006	-0.406738	0	0.285015	0	-1.00499	303.712	48.3601	-0.242356	0.006	-0.79211	0	0.859914	0	0	0	0	0	0	0	0	0	0
0.74	1.18592	316.808	-24.7029	-0.249649	0.006	-0.406907	0	0.330074	0	-0.873399	299.526	47.9672	-0.241943	0.006	-0.791933	0	0.839138	0	0	0	0	0	0	0	0	0	0
0.75	0.759597	317.762	-24.4268	-0.24964	0.006	-0.407054	0	0.375235	0	-0.751651	294.368	47.3776	-0.241459	0.006	-0.791727	0	0.818261	0	0	0	0	0	0	0	0	0	0
0.76	0.371511	319.172	-24.2475	-0.249661	0.006	-0.407175	0	0.419534	0	-0.663145	288.093	46.559	-0.240878	0.006	-0.791485	0	0.797374	0	0	0	0	0	0	0	0	0	0
0.77	0.033366	321.091	-24.177	-0.249708	0.006	-0.407267	0	0.462021	0	-0.634252	280.585	45.4848	-0.240172	0.006	-0.791202	0	0.776528	0	0	0	0	0	0	0	0	0	0
0.78	-0.243075	323.561	-24.2246	-0.249774	0.006	-0.407327	0	0.501768	0	-0.692831	271.781	44.1376	-0.239305	0.006	-0.790871	0	0.755785	0	0	0	0	0	0	0	0	0	0
0.79	-0.448916	326.6	-24.3988	-0.249847	0.006	-0.407352	0	0.53794	0	-0.865838	261.683	42.5138	-0.238238	0.006	-0.790487	0	0.735303	0	0	0	0	0	0	0	0	0	0
